<svg xmlns="http://www.w3.org/2000/svg" viewBox="0 0 800 600" role="img">
  <defs>
    <linearGradient id="bg" x1="0" y1="0" x2="0.5" y2="1">
      <stop offset="0" stop-color="#152836"/>
      <stop offset="1" stop-color="#0C1821"/>
    </linearGradient>
    <linearGradient id="waterfill" x1="0" y1="0" x2="0" y2="1">
      <stop offset="0" stop-color="#8ED6E8" stop-opacity="0.05"/>
      <stop offset="1" stop-color="#8ED6E8" stop-opacity="0.3"/>
    </linearGradient>
    <filter id="grain"><feTurbulence type="fractalNoise" baseFrequency="0.9" numOctaves="2" result="n"/><feColorMatrix in="n" type="matrix" values="0 0 0 0 1 0 0 0 0 1 0 0 0 0 1 0 0 0 0.04 0"/><feComposite operator="over" in2="SourceGraphic"/></filter>
  </defs>
  <rect width="800" height="600" fill="url(#bg)"/>

  <!-- cabinet interior -->
  <g stroke="#F4F2ED" stroke-opacity="0.15" stroke-width="2">
    <line x1="60" y1="80" x2="740" y2="80"/>
    <line x1="0" y1="500" x2="800" y2="500"/>
  </g>

  <!-- filter canisters -->
  <g fill="none" stroke="#F4F2ED" stroke-width="3">
    <rect x="170" y="180" width="90" height="240" rx="34" stroke-opacity="0.9"/>
    <rect x="300" y="180" width="90" height="240" rx="34" stroke-opacity="0.9"/>
    <path d="M170 210 h90 M300 210 h90" stroke-opacity="0.35" stroke-width="2"/>
  </g>
  <rect x="176" y="300" width="78" height="114" rx="30" fill="url(#waterfill)"/>
  <rect x="306" y="300" width="78" height="114" rx="30" fill="url(#waterfill)"/>

  <!-- connecting lines -->
  <g fill="none" stroke-linecap="round">
    <path d="M80 160 H215 V180" stroke="#52616B" stroke-width="6"/>
    <path d="M215 150 H345 V180" stroke="#3E8FB0" stroke-width="6" opacity="0"/>
    <path d="M260 200 H300" stroke="#3E8FB0" stroke-width="6"/>
    <path d="M390 200 H560 V140" stroke="#8ED6E8" stroke-width="6"/>
  </g>

  <!-- slim tap + glass above counter -->
  <line x1="60" y1="120" x2="740" y2="120" stroke="#F4F2ED" stroke-opacity="0.5" stroke-width="3"/>
  <g fill="none" stroke="#F4F2ED" stroke-width="3" stroke-opacity="0.9" stroke-linecap="round">
    <path d="M560 120 V84 q0 -18 18 -18 h14"/>
  </g>
  <line x1="592" y1="66" x2="592" y2="112" stroke="#8ED6E8" stroke-width="2.6" stroke-linecap="round" opacity="0.9"/>
  <g>
    <path d="M566 120 h52 l-6 -46 h-40 Z" fill="url(#waterfill)" stroke="#F4F2ED" stroke-opacity="0.7" stroke-width="2" transform="translate(0,-8)"/>
  </g>
  <rect width="800" height="600" fill="transparent" filter="url(#grain)"/>
</svg>
